<svg width="162" height="156" xmlns="http://www.w3.org/2000/svg" xmlns:xlink="http://www.w3.org/1999/xlink" xml:space="preserve" overflow="hidden"><defs><filter id="fx0" x="-10%" y="-10%" width="120%" height="120%" filterUnits="userSpaceOnUse" primitiveUnits="userSpaceOnUse"><feComponentTransfer color-interpolation-filters="sRGB"><feFuncR type="discrete" tableValues="0 0"/><feFuncG type="discrete" tableValues="0 0"/><feFuncB type="discrete" tableValues="0 0"/><feFuncA type="linear" slope="0.4" intercept="0"/></feComponentTransfer><feGaussianBlur stdDeviation="6.11111 6.11111"/></filter><clipPath id="clip1"><rect x="1712" y="614" width="162" height="156"/></clipPath></defs><g clip-path="url(#clip1)" transform="translate(-1712 -614)"><g filter="url(#fx0)" transform="translate(1711 613)"><g><rect x="19.7229" y="30.7226" width="124" height="107" fill="#E6E8EC"/><rect x="103.723" y="19.7226" width="15.0001" height="18.0002" fill="#505A66"/><rect x="45.7227" y="19.7226" width="14.0001" height="18.0002" fill="#505A66"/><rect x="33.7227" y="56.7227" width="96.0003" height="68.0001" fill="#F5F7FA"/><rect x="42.7225" y="66.7227" width="19.0003" height="19.9999" fill="#CCD0D8"/><rect x="71.7228" y="66.7227" width="19.9999" height="19.9999" fill="#CCD0D8"/><rect x="101.723" y="66.7227" width="18.9999" height="19.9999" fill="#CCD0D8"/><rect x="42.7225" y="94.7229" width="19.0003" height="19.9999" fill="#CCD0D8"/><rect x="71.7228" y="94.7229" width="19.9999" height="19.9999" fill="#CCD0D8"/><rect x="101.723" y="94.7229" width="18.9999" height="19.9999" fill="#CCD0D8"/></g></g><rect x="1721" y="634" width="124" height="107" fill="#E6E8EC"/><rect x="1805" y="623" width="15.0001" height="18.0002" fill="#505A66"/><rect x="1747" y="623" width="14.0001" height="18.0002" fill="#505A66"/><rect x="1735" y="660" width="96.0002" height="68.0001" fill="#F5F7FA"/><rect x="1744" y="670" width="19.0002" height="19.9999" fill="#CCD0D8"/><rect x="1773" y="670" width="19.9999" height="19.9999" fill="#CCD0D8"/><rect x="1803" y="670" width="18.9999" height="19.9999" fill="#CCD0D8"/><rect x="1744" y="698" width="19.0002" height="19.9999" fill="#CCD0D8"/><rect x="1773" y="698" width="19.9999" height="19.9999" fill="#CCD0D8"/><rect x="1803" y="698" width="18.9999" height="19.9999" fill="#CCD0D8"/></g></svg>