<svg width="162" height="158" xmlns="http://www.w3.org/2000/svg" xmlns:xlink="http://www.w3.org/1999/xlink" xml:space="preserve" overflow="hidden"><defs><filter id="fx0" x="-10%" y="-10%" width="120%" height="120%" filterUnits="userSpaceOnUse" primitiveUnits="userSpaceOnUse"><feComponentTransfer color-interpolation-filters="sRGB"><feFuncR type="discrete" tableValues="0 0"/><feFuncG type="discrete" tableValues="0 0"/><feFuncB type="discrete" tableValues="0 0"/><feFuncA type="linear" slope="0.4" intercept="0"/></feComponentTransfer><feGaussianBlur stdDeviation="6.11111 6.11111"/></filter><clipPath id="clip1"><rect x="1920" y="612" width="162" height="158"/></clipPath></defs><g clip-path="url(#clip1)" transform="translate(-1920 -612)"><g filter="url(#fx0)" transform="translate(1919 611)"><g><path d="M143.723 89.1966C143.723 89.1966 143.723 89.1966 143.723 89.1966 143.723 70.2492 143.723 70.2492 143.723 70.2492 143.723 70.2492 143.723 70.2492 143.723 70.2492 143.723 70.2492 143.723 70.2492 143.723 70.2492 143.723 70.2492 143.723 70.2492 143.723 70.2492 143.723 70.2492 143.723 70.2492 143.723 70.2492 143.723 70.2492 143.723 70.2492 142.907 70.2492 138.012 70.2492 138.012 70.2492 138.012 70.2492 131.486 68.6703 125.775 63.1439 125.775 56.0387 125.775 52.8808 126.591 50.5124 128.223 48.1439 132.302 44.1966 132.302 44.1966 132.302 44.1966 132.302 44.1966 132.302 44.1966 132.302 44.1966 132.302 44.1966 132.302 44.1966 132.302 44.1966 132.302 44.1966 132.302 44.1966 132.302 44.1966 132.302 44.1966 132.302 44.1966 132.302 44.1966 118.433 30.7755 118.433 30.7755 118.433 30.7755 118.433 30.7755 118.433 30.7755 118.433 30.7755 118.433 30.7755 118.433 30.7755 118.433 30.7755 118.433 30.7755 118.433 30.7755 118.433 30.7755 114.354 33.9334 114.354 33.9334 114.354 33.9334 108.644 37.8808 100.486 37.8808 95.5912 32.3545 93.1438 30.7755 92.328 27.6176 91.5122 25.2492 91.5122 19.7229 91.5122 19.7229 91.5122 19.7229 91.5122 19.7229 91.5122 19.7229 91.5122 19.7229 91.5122 19.7229 91.5122 19.7229 91.5122 19.7229 91.5122 19.7229 91.5122 19.7229 91.5122 19.7229 71.9333 19.7229 71.9333 19.7229 71.9333 19.7229 71.9333 19.7229 71.9333 19.7229 71.9333 19.7229 71.9333 19.7229 71.9333 19.7229 71.9333 19.7229 71.9333 19.7229 71.9333 19.7229 71.9333 19.7229 71.9333 19.7229 71.9333 19.7229 71.9333 19.7229 71.9333 19.7229 71.9333 19.7229 71.9333 20.5124 71.9333 25.2492 71.9333 25.2492 71.9333 25.2492 70.3017 31.565 64.5912 37.0913 57.2491 37.0913 53.986 37.0913 51.5386 36.3018 49.0913 34.7229 45.0123 30.7755 45.0123 30.7755 45.0123 30.7755 45.0123 30.7755 45.0123 30.7755 45.0123 30.7755 45.0123 30.7755 45.0123 30.7755 45.0123 30.7755 45.0123 30.7755 45.0123 30.7755 45.0123 30.7755 45.0123 30.7755 45.0123 30.7755 45.0123 30.7755 31.1439 44.1966 31.1439 44.1966 31.1439 44.1966 31.1439 44.1966 31.1439 44.1966 31.1439 44.1966 31.1439 44.1966 31.1439 44.1966 31.1439 44.1966 31.1439 44.1966 31.1439 44.1966 31.1439 44.1966 34.4071 48.1439 34.4071 48.1439 34.4071 48.1439 38.486 53.6703 38.486 61.565 32.7755 66.3018 31.1439 68.6703 27.8808 69.4597 25.4334 70.2492 19.7229 70.2492 19.7229 70.2492 19.7229 70.2492 19.7229 70.2492 19.7229 70.2492 19.7229 70.2492 19.7229 70.2492 19.7229 70.2492 19.7229 70.2492 19.7229 70.2492 19.7229 70.2492 19.7229 70.2492 19.7229 89.1966 19.7229 89.1966 19.7229 89.1966 19.7229 89.1966 19.7229 89.1966 19.7229 89.1966 19.7229 89.1966 19.7229 89.1966 19.7229 89.1966 19.7229 89.1966 19.7229 89.1966 19.7229 89.1966 19.7229 89.1966 19.7229 89.1966 19.7229 89.1966 19.7229 89.1966 19.7229 89.1966 20.5387 89.1966 25.4334 89.1966 25.4334 89.1966 25.4334 89.1966 31.9597 90.7755 37.6702 96.3018 37.6702 103.407 37.6702 106.565 36.8544 108.933 35.2229 111.302 31.1439 115.249 31.1439 115.249 31.1439 115.249 31.1439 115.249 31.1439 115.249 31.1439 115.249 31.1439 115.249 31.1439 115.249 31.1439 115.249 31.1439 115.249 31.1439 115.249 31.1439 115.249 31.1439 115.249 31.1439 115.249 31.1439 115.249 45.0123 128.67 45.0123 128.67 45.0123 128.67 45.0123 128.67 45.0123 128.67 45.0123 128.67 45.0123 128.67 45.0123 128.67 45.0123 128.67 45.0123 128.67 45.0123 128.67 45.0123 128.67 49.0913 125.512 49.0913 125.512 49.0913 125.512 54.8018 121.565 62.9596 121.565 67.8544 127.091 70.3017 128.67 71.1175 131.828 71.9333 134.197 71.9333 139.723 71.9333 139.723 71.9333 139.723 71.9333 139.723 71.9333 139.723 71.9333 139.723 71.9333 139.723 71.9333 139.723 71.9333 139.723 71.9333 139.723 71.9333 139.723 71.9333 139.723 91.5122 139.723 91.5122 139.723 91.5122 139.723 91.5122 139.723 91.5122 139.723 91.5122 139.723 91.5122 139.723 91.5122 139.723 91.5122 139.723 91.5122 139.723 91.5122 139.723 91.5122 139.723 91.5122 139.723 91.5122 139.723 91.5122 139.723 91.5122 139.723 91.5122 139.723 91.5122 138.933 91.5122 134.197 91.5122 134.197 91.5122 134.197 93.1438 127.881 98.8543 122.354 106.196 122.354 109.46 122.354 111.907 123.144 114.354 124.723 118.433 128.67 118.433 128.67 118.433 128.67 118.433 128.67 118.433 128.67 118.433 128.67 118.433 128.67 118.433 128.67 118.433 128.67 118.433 128.67 118.433 128.67 118.433 128.67 118.433 128.67 118.433 128.67 118.433 128.67 132.302 115.249 132.302 115.249 132.302 115.249 132.302 115.249 132.302 115.249 132.302 115.249 132.302 115.249 132.302 115.249 132.302 115.249 132.302 115.249 132.302 115.249 132.302 115.249 129.038 111.302 129.038 111.302 129.038 111.302 124.96 105.776 124.96 97.8808 130.67 93.1439 132.302 90.7755 135.565 89.986 138.012 89.1966 143.723 89.1966 143.723 89.1966 143.723 89.1966 143.723 89.1966 143.723 89.1966 143.723 89.1966ZM81.7228 102.618C68.6702 102.618 58.0649 92.3545 58.0649 79.7229 58.0649 67.0913 68.6702 56.8282 81.7228 56.8282 94.7754 56.8282 105.381 67.0913 105.381 79.7229 105.381 92.3545 94.7754 102.618 81.7228 102.618Z" fill="#BFBFBF" fill-rule="evenodd"/></g></g><path d="M2053 690.474C2053 690.474 2053 690.474 2053 690.474 2053 671.526 2053 671.526 2053 671.526 2053 671.526 2053 671.526 2053 671.526 2053 671.526 2053 671.526 2053 671.526 2053 671.526 2053 671.526 2053 671.526 2053 671.526 2053 671.526 2053 671.526 2053 671.526 2053 671.526 2052.18 671.526 2047.29 671.526 2047.29 671.526 2047.29 671.526 2040.76 669.948 2035.05 664.421 2035.05 657.316 2035.05 654.158 2035.87 651.79 2037.5 649.421 2041.58 645.474 2041.58 645.474 2041.58 645.474 2041.58 645.474 2041.58 645.474 2041.58 645.474 2041.58 645.474 2041.58 645.474 2041.58 645.474 2041.58 645.474 2041.58 645.474 2041.58 645.474 2041.58 645.474 2041.58 645.474 2041.58 645.474 2027.71 632.053 2027.71 632.053 2027.71 632.053 2027.71 632.053 2027.71 632.053 2027.71 632.053 2027.71 632.053 2027.71 632.053 2027.71 632.053 2027.71 632.053 2027.71 632.053 2027.71 632.053 2023.63 635.211 2023.63 635.211 2023.63 635.211 2017.92 639.158 2009.76 639.158 2004.87 633.632 2002.42 632.053 2001.61 628.895 2000.79 626.526 2000.79 621 2000.79 621 2000.79 621 2000.79 621 2000.79 621 2000.79 621 2000.79 621 2000.79 621 2000.79 621 2000.79 621 2000.79 621 2000.79 621 1981.21 621 1981.21 621 1981.21 621 1981.21 621 1981.21 621 1981.21 621 1981.21 621 1981.21 621 1981.21 621 1981.21 621 1981.21 621 1981.21 621 1981.21 621 1981.21 621 1981.21 621 1981.21 621 1981.21 621 1981.21 621.79 1981.21 626.526 1981.21 626.526 1981.21 626.526 1979.58 632.842 1973.87 638.369 1966.53 638.369 1963.26 638.369 1960.82 637.579 1958.37 636 1954.29 632.053 1954.29 632.053 1954.29 632.053 1954.29 632.053 1954.29 632.053 1954.29 632.053 1954.29 632.053 1954.29 632.053 1954.29 632.053 1954.29 632.053 1954.29 632.053 1954.29 632.053 1954.29 632.053 1954.29 632.053 1954.29 632.053 1940.42 645.474 1940.42 645.474 1940.42 645.474 1940.42 645.474 1940.42 645.474 1940.42 645.474 1940.42 645.474 1940.42 645.474 1940.42 645.474 1940.42 645.474 1940.42 645.474 1940.42 645.474 1943.68 649.421 1943.68 649.421 1943.68 649.421 1947.76 654.948 1947.76 662.842 1942.05 667.579 1940.42 669.948 1937.16 670.737 1934.71 671.526 1929 671.526 1929 671.526 1929 671.526 1929 671.526 1929 671.526 1929 671.526 1929 671.526 1929 671.526 1929 671.526 1929 671.526 1929 671.526 1929 671.526 1929 690.474 1929 690.474 1929 690.474 1929 690.474 1929 690.474 1929 690.474 1929 690.474 1929 690.474 1929 690.474 1929 690.474 1929 690.474 1929 690.474 1929 690.474 1929 690.474 1929 690.474 1929 690.474 1929 690.474 1929.82 690.474 1934.71 690.474 1934.71 690.474 1934.71 690.474 1941.24 692.053 1946.95 697.579 1946.95 704.684 1946.95 707.842 1946.13 710.211 1944.5 712.579 1940.42 716.526 1940.42 716.526 1940.42 716.526 1940.42 716.526 1940.42 716.526 1940.42 716.526 1940.42 716.526 1940.42 716.526 1940.42 716.526 1940.42 716.526 1940.42 716.526 1940.42 716.526 1940.42 716.526 1940.42 716.526 1940.42 716.526 1954.29 729.948 1954.29 729.948 1954.29 729.948 1954.29 729.948 1954.29 729.948 1954.29 729.948 1954.29 729.948 1954.29 729.948 1954.29 729.948 1954.29 729.948 1954.29 729.948 1954.29 729.948 1958.37 726.79 1958.37 726.79 1958.37 726.79 1964.08 722.842 1972.24 722.842 1977.13 728.369 1979.58 729.948 1980.39 733.105 1981.21 735.474 1981.21 741 1981.21 741 1981.21 741 1981.21 741 1981.21 741 1981.21 741 1981.21 741 1981.21 741 1981.21 741 1981.21 741 1981.21 741 1981.21 741 2000.79 741 2000.79 741 2000.79 741 2000.79 741 2000.79 741 2000.79 741 2000.79 741 2000.79 741 2000.79 741 2000.79 741 2000.79 741 2000.79 741 2000.79 741 2000.79 741 2000.79 741 2000.79 741 2000.79 741 2000.79 740.211 2000.79 735.474 2000.79 735.474 2000.79 735.474 2002.42 729.158 2008.13 723.632 2015.47 723.632 2018.74 723.632 2021.18 724.421 2023.63 726 2027.71 729.948 2027.71 729.948 2027.71 729.948 2027.71 729.948 2027.71 729.948 2027.71 729.948 2027.71 729.948 2027.71 729.948 2027.71 729.948 2027.71 729.948 2027.71 729.948 2027.71 729.948 2027.71 729.948 2027.71 729.948 2027.71 729.948 2041.58 716.526 2041.58 716.526 2041.58 716.526 2041.58 716.526 2041.58 716.526 2041.58 716.526 2041.58 716.526 2041.58 716.526 2041.58 716.526 2041.58 716.526 2041.58 716.526 2041.58 716.526 2038.32 712.579 2038.32 712.579 2038.32 712.579 2034.24 707.053 2034.24 699.158 2039.95 694.421 2041.58 692.053 2044.84 691.263 2047.29 690.474 2053 690.474 2053 690.474 2053 690.474 2053 690.474 2053 690.474 2053 690.474ZM1991 703.895C1977.95 703.895 1967.34 693.632 1967.34 681 1967.34 668.369 1977.95 658.105 1991 658.105 2004.05 658.105 2014.66 668.369 2014.66 681 2014.66 693.632 2004.05 703.895 1991 703.895Z" fill="#BFBFBF" fill-rule="evenodd"/></g></svg>