<svg width="162" height="161" xmlns="http://www.w3.org/2000/svg" xmlns:xlink="http://www.w3.org/1999/xlink" xml:space="preserve" overflow="hidden"><defs><filter id="fx0" x="-10%" y="-10%" width="120%" height="120%" filterUnits="userSpaceOnUse" primitiveUnits="userSpaceOnUse"><feComponentTransfer color-interpolation-filters="sRGB"><feFuncR type="discrete" tableValues="0 0"/><feFuncG type="discrete" tableValues="0 0"/><feFuncB type="discrete" tableValues="0 0"/><feFuncA type="linear" slope="0.4" intercept="0"/></feComponentTransfer><feGaussianBlur stdDeviation="6.11111 6.11111"/></filter><clipPath id="clip1"><rect x="2134" y="611" width="162" height="161"/></clipPath></defs><g clip-path="url(#clip1)" transform="translate(-2134 -611)"><g filter="url(#fx0)" transform="translate(2133 610)"><g><path d="M143.723 142.723C143.723 129.689 143.723 129.689 143.723 129.689 143.723 123.987 139.644 118.286 133.933 116.656 133.933 116.656 133.933 116.656 133.933 116.656 133.117 116.656 104.565 109.325 100.486 100.365 98.0385 97.1068 100.486 92.2194 102.117 88.9611 102.933 87.3319 103.749 86.5174 104.565 84.8882 104.565 84.8882 104.565 84.8882 104.565 84.8882 104.565 84.8882 104.565 84.8882 104.565 84.8882 109.46 77.5571 113.539 66.9678 113.539 53.9347 114.354 35.1996 99.6701 19.7228 81.7227 19.7228 81.7227 19.7228 81.7227 19.7228 81.7227 19.7228 81.7227 19.7228 81.7227 19.7228 81.7227 19.7228 81.7227 19.7228 81.7227 19.7228 81.7227 19.7228 81.7227 19.7228 81.7227 19.7228 81.7227 19.7228 63.7753 19.7228 49.0911 35.1996 49.9069 53.9347 49.9069 66.9678 53.9858 77.5571 58.8806 84.8882 58.8806 84.8882 58.8806 84.8882 58.8806 84.8882 58.8806 84.8882 58.8806 84.8882 58.8806 84.8882 59.6964 86.5174 60.5122 87.3319 61.328 88.9611 62.9595 92.2194 65.4069 97.1068 62.9595 100.365 58.8806 109.325 30.3279 116.656 29.5121 116.656 29.5121 116.656 29.5121 116.656 29.5121 116.656 23.8016 118.286 19.7227 123.987 19.7227 129.689 19.7227 142.723 19.7227 142.723 19.7227 142.723L143.723 142.723Z" fill="#D0CECE" fill-rule="evenodd"/></g></g><path d="M2267 743C2267 729.967 2267 729.967 2267 729.967 2267 724.265 2262.92 718.563 2257.21 716.934 2257.21 716.934 2257.21 716.934 2257.21 716.934 2256.39 716.934 2227.84 709.603 2223.76 700.642 2221.32 697.384 2223.76 692.497 2225.39 689.238 2226.21 687.609 2227.03 686.795 2227.84 685.166 2227.84 685.166 2227.84 685.166 2227.84 685.166 2227.84 685.166 2227.84 685.166 2227.84 685.166 2232.74 677.834 2236.82 667.245 2236.82 654.212 2237.63 635.477 2222.95 620 2205 620 2205 620 2205 620 2205 620 2205 620 2205 620 2205 620 2205 620 2205 620 2205 620 2205 620 2205 620 2205 620 2187.05 620 2172.37 635.477 2173.18 654.212 2173.18 667.245 2177.26 677.834 2182.16 685.166 2182.16 685.166 2182.16 685.166 2182.16 685.166 2182.16 685.166 2182.16 685.166 2182.16 685.166 2182.97 686.795 2183.79 687.609 2184.61 689.238 2186.24 692.497 2188.68 697.384 2186.24 700.642 2182.16 709.603 2153.61 716.934 2152.79 716.934 2152.79 716.934 2152.79 716.934 2152.79 716.934 2147.08 718.563 2143 724.265 2143 729.967 2143 743 2143 743 2143 743L2267 743Z" fill="#D0CECE" fill-rule="evenodd"/></g></svg>